<svg xmlns="http://www.w3.org/2000/svg" width="104.943" height="96" viewBox="0 0 104.943 96">
  <g id="footer-logo" transform="translate(-208.078 34.338)">
    <g id="LOGO" transform="translate(208.117 -42.801)">
      <path id="Path_6" data-name="Path 6" d="M24.115,55.052a1.128,1.128,0,0,0-.5-1.248,1.154,1.154,0,0,0-.928-.189,1.374,1.374,0,0,0-.8.629l-.126.184,1.957,1.311.126-.184a2.24,2.24,0,0,0,.273-.5Z" transform="translate(-10.364 -21.453)" fill="rgba(0,0,0,0)"/>
      <path id="Path_7" data-name="Path 7" d="M97.557,181.823c0,.336.278.488.745.446h.163l-.089-1.049h-.184C97.736,181.278,97.526,181.472,97.557,181.823Z" transform="translate(-46.4 -82.136)" fill="rgba(0,0,0,0)"/>
      <path id="Path_8" data-name="Path 8" d="M11.9,76.075l-.047.157.991.3.052-.173c.136-.435.037-.708-.3-.808S12.039,75.629,11.9,76.075Z" transform="translate(-5.653 -31.885)" fill="rgba(0,0,0,0)"/>
      <path id="Path_9" data-name="Path 9" d="M102.643,79.98l-1.353,2.964h2.644Z" transform="translate(-48.176 -34.002)" fill="rgba(0,0,0,0)"/>
      <path id="Path_10" data-name="Path 10" d="M10.8,113.231a1.206,1.206,0,0,0,.829-.525,1.175,1.175,0,0,0,.21-.887,1.149,1.149,0,0,0-.493-.8,1.2,1.2,0,0,0-.923-.215,1.219,1.219,0,0,0-.546,2.2A1.191,1.191,0,0,0,10.8,113.231Z" transform="translate(-4.474 -48.647)" fill="rgba(0,0,0,0)"/>
      <path id="Path_11" data-name="Path 11" d="M19.387,60.787a1.243,1.243,0,0,0-.944-.094,1.17,1.17,0,0,0-.719.6,1.238,1.238,0,0,0,2.187,1.154A1.18,1.18,0,0,0,20,61.511,1.259,1.259,0,0,0,19.387,60.787Z" transform="translate(-8.389 -24.807)" fill="rgba(0,0,0,0)"/>
      <path id="Path_12" data-name="Path 12" d="M118.9,174.279a.525.525,0,0,0-.907.33,1.841,1.841,0,0,0,.126.9,1.9,1.9,0,0,0,.488.776.572.572,0,0,0,.577.168.556.556,0,0,0,.33-.525,1.789,1.789,0,0,0-.121-.892A1.894,1.894,0,0,0,118.9,174.279Z" transform="translate(-56.11 -78.756)" fill="rgba(0,0,0,0)"/>
      <path id="Path_13" data-name="Path 13" d="M14.764,130.128a1.17,1.17,0,0,0,.939,0,1.191,1.191,0,0,0,.7-.661,1.154,1.154,0,0,0,0-.913,1.191,1.191,0,0,0-.65-.682,1.227,1.227,0,0,0-.955,0,1.191,1.191,0,0,0-.687.656,1.217,1.217,0,0,0,.64,1.605Z" transform="translate(-6.678 -56.726)" fill="rgba(0,0,0,0)"/>
      <path id="Path_14" data-name="Path 14" d="M127.3,79.1q0-1.338-1.82-1.338H125v2.749h.42Q127.3,80.509,127.3,79.1Z" transform="translate(-59.449 -32.946)" fill="rgba(0,0,0,0)"/>
      <path id="Path_15" data-name="Path 15" d="M14.842,69.208c-.315-.126-.556,0-.724.451l-.068.163.976.388.058-.147C15.256,69.628,15.178,69.339,14.842,69.208Z" transform="translate(-6.699 -28.859)" fill="rgba(0,0,0,0)"/>
      <path id="Path_16" data-name="Path 16" d="M83.006,182.172h.173l.11-1.049h-.157c-.467-.047-.719.1-.755.462S82.549,182.1,83.006,182.172Z" transform="translate(-39.182 -82.085)" fill="rgba(0,0,0,0)"/>
      <path id="Path_17" data-name="Path 17" d="M79.391,118.463a3.074,3.074,0,0,0-2.292-.944,3.284,3.284,0,1,0,2.282,5.618,3.378,3.378,0,0,0,0-4.674Z" transform="translate(-35.1 -51.849)" fill="rgba(0,0,0,0)"/>
      <path id="Path_18" data-name="Path 18" d="M54.861,173.64c-.142.3,0,.551.4.755l.157.073.456-.939-.142-.068C55.313,173.257,55.019,173.315,54.861,173.64Z" transform="translate(-26.077 -78.39)" fill="rgba(0,0,0,0)"/>
      <path id="Path_19" data-name="Path 19" d="M134.086,30.925a1.149,1.149,0,0,0,.157-.934,1.4,1.4,0,0,0-.656-.766l-.189-.115-1.248,2,.189.121a1.909,1.909,0,0,0,.525.231,1.075,1.075,0,0,0,.467,0,1.112,1.112,0,0,0,.755-.535Z" transform="translate(-62.848 -9.816)" fill="rgba(0,0,0,0)"/>
      <path id="Path_20" data-name="Path 20" d="M126.383,118.465a3.263,3.263,0,0,0-4.59,0,3.362,3.362,0,0,0,.037,4.69,3.1,3.1,0,0,0,2.25.913,3.147,3.147,0,0,0,2.313-.949,3.378,3.378,0,0,0,0-4.674Z" transform="translate(-57.48 -51.851)" fill="rgba(0,0,0,0)"/>
      <path id="Path_21" data-name="Path 21" d="M125.478,171.449a.506.506,0,0,0-.871.414,1.867,1.867,0,0,0,.2.892,1.893,1.893,0,0,0,.556.724.525.525,0,0,0,.876-.409,1.847,1.847,0,0,0-.2-.876,1.973,1.973,0,0,0-.561-.745Z" transform="translate(-59.261 -77.416)" fill="rgba(0,0,0,0)"/>
      <path id="Path_22" data-name="Path 22" d="M56.057,78.55a3.672,3.672,0,0,0-2.544-.8H52.92v6.242h.593a4.926,4.926,0,0,0,1.474-.184,3.2,3.2,0,0,0,1.049-5.246Z" transform="translate(-25.179 -32.939)" fill="rgba(0,0,0,0)"/>
      <path id="Path_23" data-name="Path 23" d="M112.983,180.022a.4.4,0,0,0,.32.052.42.42,0,0,0,.257-.194.394.394,0,0,0,.047-.315.425.425,0,0,0-.525-.309.414.414,0,0,0-.257.194.425.425,0,0,0-.047.32A.388.388,0,0,0,112.983,180.022Z" transform="translate(-53.632 -81.195)" fill="rgba(0,0,0,0)"/>
      <path id="Path_24" data-name="Path 24" d="M41.29,164.436l1.091-.572-.792-.614Z" transform="translate(-19.65 -73.592)" fill="rgba(0,0,0,0)"/>
      <path id="Path_25" data-name="Path 25" d="M108.3,177.657a.425.425,0,0,0,.32.047.4.4,0,0,0,.257-.194.393.393,0,0,0,.052-.315.414.414,0,0,0-.194-.262.383.383,0,0,0-.32-.047.425.425,0,0,0-.3.525A.388.388,0,0,0,108.3,177.657Z" transform="translate(-51.414 -80.067)" fill="rgba(0,0,0,0)"/>
      <path id="Path_26" data-name="Path 26" d="M60.917,24.9a1.2,1.2,0,0,0,1.6-1.574,1.254,1.254,0,0,0-.65-.7,1.175,1.175,0,0,0-.934,0,1.248,1.248,0,0,0-.031,2.292Z" transform="translate(-28.623 -6.69)" fill="rgba(0,0,0,0)"/>
      <path id="Path_27" data-name="Path 27" d="M118.4,22.8l-.855.886.944.33Z" transform="translate(-55.902 -6.816)" fill="rgba(0,0,0,0)"/>
      <path id="Path_28" data-name="Path 28" d="M62.374,176.417a1.248,1.248,0,0,0,1.511-1.71,1.175,1.175,0,0,0-.671-.619,1.2,1.2,0,0,0-.944.037,1.227,1.227,0,0,0-.635.708,1.191,1.191,0,0,0,.031.949A1.175,1.175,0,0,0,62.374,176.417Z" transform="translate(-29.282 -78.707)" fill="rgba(0,0,0,0)"/>
      <path id="Path_29" data-name="Path 29" d="M53.337,26.367l-.157.079.477.934.142-.073c.414-.215.525-.483.383-.8S53.747,26.158,53.337,26.367Z" transform="translate(-25.303 -8.448)" fill="rgba(0,0,0,0)"/>
      <path id="Path_30" data-name="Path 30" d="M99.734,18.51l-.624,1.054.991.11Z" transform="translate(-47.14 -4.776)" fill="rgba(0,0,0,0)"/>
      <path id="Path_31" data-name="Path 31" d="M55.8,76.528a3.918,3.918,0,0,0-1.484-.866,6.673,6.673,0,0,0-2.1-.257H50.41v8.7h1.8a6.72,6.72,0,0,0,2.051-.241A4.443,4.443,0,0,0,55.8,76.523Zm-.949,5.539A3.006,3.006,0,0,1,53.8,82.7a4.926,4.926,0,0,1-1.474.184h-.6V76.639h.593a3.672,3.672,0,0,1,2.544.8,3.021,3.021,0,0,1,.96,2.324A2.979,2.979,0,0,1,54.853,82.068Z" transform="translate(-23.986 -31.825)" fill="#fff"/>
      <path id="Path_32" data-name="Path 32" d="M75.11,84.123h4.81V82.885H76.427V79.974h3.394V78.741H76.427V76.648H79.92V75.41H75.11Z" transform="translate(-35.729 -31.829)" fill="#fff"/>
      <path id="Path_33" data-name="Path 33" d="M97.106,83.6l.976-2.1h3.73l.913,2.1h1.437L100,74.34,95.69,83.6Zm2.875-6.295,1.29,2.964H98.649Z" transform="translate(-45.514 -31.32)" fill="#fff"/>
      <path id="Path_34" data-name="Path 34" d="M122.5,84.122H123.8V80.555h.236l2.492,3.567h1.605l-2.7-3.714a2.387,2.387,0,0,0,1.4-.85,2.5,2.5,0,0,0,.525-1.574,2.382,2.382,0,0,0-.845-1.9,3.859,3.859,0,0,0-2.5-.65H122.48Zm1.306-7.47h.467q1.82,0,1.82,1.338,0,1.432-1.867,1.432h-.42Z" transform="translate(-58.251 -31.839)" fill="#fff"/>
      <path id="Path_35" data-name="Path 35" d="M53.106,116.377a3.625,3.625,0,0,1,2.355.949v-1.574a4.438,4.438,0,0,0-2.266-.635,4.38,4.38,0,0,0-3.5,1.574,4.48,4.48,0,0,0-1.1,2.969,4.307,4.307,0,0,0,1.317,3.174A4.359,4.359,0,0,0,53.1,124.14a4.721,4.721,0,0,0,2.366-.64v-1.574a6.907,6.907,0,0,1-.608.462,3.519,3.519,0,0,1-.561.3,2.77,2.77,0,0,1-1.18.226,3.058,3.058,0,0,1-2.271-.944,3.179,3.179,0,0,1-.923-2.313,3.263,3.263,0,0,1,.923-2.345A3,3,0,0,1,53.106,116.377Z" transform="translate(-23.12 -50.707)" fill="#fff"/>
      <path id="Path_36" data-name="Path 36" d="M79.194,116.492A4.375,4.375,0,0,0,76,115.16a4.443,4.443,0,0,0-3.221,1.322,4.5,4.5,0,0,0,.131,6.546,4.606,4.606,0,0,0,6.295-.147,4.3,4.3,0,0,0,1.343-3.189A4.354,4.354,0,0,0,79.194,116.492Zm-.934,5.524a3.273,3.273,0,1,1-2.282-5.618,3.074,3.074,0,0,1,2.292.944,3.378,3.378,0,0,1,0,4.674Z" transform="translate(-33.98 -50.728)" fill="#fff"/>
      <path id="Path_37" data-name="Path 37" d="M103.481,123.547v-1.574a6.914,6.914,0,0,1-.608.462,3.52,3.52,0,0,1-.561.3,2.769,2.769,0,0,1-1.18.226,3.058,3.058,0,0,1-2.271-.944,3.179,3.179,0,0,1-.923-2.313,3.263,3.263,0,0,1,.923-2.345,3,3,0,0,1,2.266-.965,3.625,3.625,0,0,1,2.355.949v-1.574a4.438,4.438,0,0,0-2.266-.635,4.37,4.37,0,0,0-3.5,1.574,4.48,4.48,0,0,0-1.1,2.969,4.307,4.307,0,0,0,1.317,3.174,4.359,4.359,0,0,0,3.189,1.306A4.721,4.721,0,0,0,103.481,123.547Z" transform="translate(-45.951 -50.716)" fill="#fff"/>
      <path id="Path_38" data-name="Path 38" d="M127.437,119.692a4.558,4.558,0,0,0-4.532-4.532,4.438,4.438,0,0,0-3.226,1.322,4.5,4.5,0,0,0,.131,6.546,4.6,4.6,0,0,0,6.295-.147A4.286,4.286,0,0,0,127.437,119.692Zm-4.558,3.252a3.1,3.1,0,0,1-2.229-.934,3.273,3.273,0,0,1,2.229-5.613,3.084,3.084,0,0,1,2.292.944,3.378,3.378,0,0,1,0,4.674,3.147,3.147,0,0,1-2.292.928Z" transform="translate(-56.278 -50.728)" fill="#fff"/>
      <path id="Path_39" data-name="Path 39" d="M104.8,62.916a14.823,14.823,0,0,1-1.049,2.875,12.82,12.82,0,0,1-1.768,2.68,14.965,14.965,0,0,1-2.067,2.1,7.343,7.343,0,0,1-2.13,1.18,12.956,12.956,0,0,1-3.027.645,6.327,6.327,0,0,1-.991,0c-.409,1.049-.845,2.051-1.322,3.048-.288.619-.593,1.227-.918,1.831.792-.792,2.465-1.416,4.763-2.387.194-.094.393-.22.6-.346l3.787-2.277c.147-.089.283-.178.425-.257.845-.525,1.443-.965,1.9-1.264l.7-.467a12.389,12.389,0,0,1-3.394,4.674A9.154,9.154,0,0,1,95.6,77.467a13.554,13.554,0,0,1-3.121.058,5.985,5.985,0,0,1-.991-.163,51.477,51.477,0,0,1-2.7,4.543,20.422,20.422,0,0,1,4.863-1.4c.215-.047.441-.126.671-.2.719-.22,1.427-.472,2.1-.734l1.936-.74.441-.173c1.7-.7,2.864-1.144,2.864-1.144a13.754,13.754,0,0,1-3.772,3.74,9.589,9.589,0,0,1-5.109,1.684,13.77,13.77,0,0,1-3.147-.525,7.517,7.517,0,0,1-.944-.351q-1.427,2.14-3.048,4.144a8.231,8.231,0,0,1,1.427-.184c.845-.084,1.972-.126,3.331-.194a5.287,5.287,0,0,0,.671-.079c1.374-.194,2.953-.362,4.2-.619l.446-.089,2.917-.619a7.344,7.344,0,0,1-1.495,1.406,12.786,12.786,0,0,1-1.128.761c-.425.226-.887.446-1.343.645a8.965,8.965,0,0,1-5.293.866,16.555,16.555,0,0,1-3.147-1.185c-.388-.21-.635-.357-.787-.462a50.657,50.657,0,0,1-3.42,3.766,9.851,9.851,0,0,1,1.128.089l1.532.215,1.888.231c.2,0,.425.037.65.052,1.332.079,2.833.142,4.139.184h3.373a4.648,4.648,0,0,1-1.437.944,16.263,16.263,0,0,1-2.581.928,12.469,12.469,0,0,1-2.885.462,5.665,5.665,0,0,1-2.534-.477,17.425,17.425,0,0,1-2.938-1.773c-.289-.226-.493-.4-.635-.525q-1.621,1.574-3.362,3.032c.289.063.677.168,1.175.315s1.086.325,1.768.525l2.229.635.75.189c1.479.357,3.195.713,4.721.986l.525.089c1,.168,1.7.3,2.177.425a5.9,5.9,0,0,1,.708.215,9.983,9.983,0,0,1-4.092,1.186,14.163,14.163,0,0,1-3.483.126,6.646,6.646,0,0,1-2.948-1.012,20.79,20.79,0,0,1-3.179-2.7,8.788,8.788,0,0,1-.656-.745,47.953,47.953,0,1,1,.414-74.414l-.525.65A47.179,47.179,0,0,0,.889,54.1,46.612,46.612,0,0,0,4.923,75.71,47.168,47.168,0,0,0,67.214,99.567a52.147,52.147,0,0,0,10.491-6.247,11.062,11.062,0,0,1-.761-1.049,32.3,32.3,0,0,1-1.957-3.635A8.555,8.555,0,0,1,74.3,85.85a21.55,21.55,0,0,1-.152-2.958,7.459,7.459,0,0,1,.472-2.927,20.6,20.6,0,0,1,.934,2.324c.052.142.094.294.147.446.42,1.3.855,2.838,1.185,4.254l.178.724c.21.8.378,1.574.5,2.235a15.976,15.976,0,0,1,.21,1.731,6.789,6.789,0,0,1,0,1.574c1.254-.965,2.471-1.988,3.625-3.069a8.428,8.428,0,0,1-.661-.86,25.673,25.673,0,0,1-1.71-2.917,7.485,7.485,0,0,1-.65-2.292,16.445,16.445,0,0,1-.21-2.534,15.658,15.658,0,0,1,.126-2.1,4.437,4.437,0,0,1,.247-1.206s.1.252.294.677a18.642,18.642,0,0,1,.656,1.763c.037.126.084.252.121.372.362,1.1.74,2.4,1.049,3.672.052.2.1.414.152.614.184.656.341,1.269.462,1.831a13.783,13.783,0,0,1,.22,1.443,4.233,4.233,0,0,1,0,1.5,51.655,51.655,0,0,0,3.73-3.85,8.258,8.258,0,0,1-.7-.829,24.843,24.843,0,0,1-1.752-2.722,11.512,11.512,0,0,1-1.154-4.721c0-.4-.026-.782,0-1.144s-.026-.729,0-1.049a4.018,4.018,0,0,1,.236-1.443s.493.918,1.091,2.387c.052.126.1.252.157.383a26.7,26.7,0,0,1,1.18,3.609c.052.21.1.414.168.608a26.585,26.585,0,0,1,.834,3.147,3.625,3.625,0,0,1,0,1.715,48.3,48.3,0,0,0,3.315-4.28,6.817,6.817,0,0,1-.7-.776,28.8,28.8,0,0,1-1.862-2.623,11.147,11.147,0,0,1-1.343-4.527,8.521,8.521,0,0,1,0-3.966,21.117,21.117,0,0,1,1.186,2.3c.058.126.115.252.178.378.236.525.5,1.1.74,1.715a13.353,13.353,0,0,1,.656,1.9c.063.21.115.414.184.6.8,2.256,1.285,4.107,1,4.962A47.735,47.735,0,0,0,92.45,75.39a46.98,46.98,0,0,0,4.59-17.137,43.879,43.879,0,0,0-1.2-13.612,13.083,13.083,0,0,1-2.471-2.324A34.774,34.774,0,0,1,90.9,39.1c-.907-1.317-1.862-2.854-2.948-4.669a6.265,6.265,0,0,1,.593.467,19.006,19.006,0,0,1,1.684,1.574,27.412,27.412,0,0,1,2.544,3.147c.472.671,1.018,1.427,1.511,2.266s1.007,1.752,1.574,2.764q-.372-1.5-.845-2.974c.383,1.165.724,2.345,1.007,3.541h0a44.021,44.021,0,0,1,1.1,13.046c-.079,1.2-.215,2.381-.383,3.562a54.978,54.978,0,0,1,3.09-5.062c.142-.215.273-.456.4-.687.818-1.679,1.574-3.147,2.151-4.4.079-.168.163-.33.236-.488.525-1.012.75-1.789,1-2.319a1.692,1.692,0,0,0,.226-.782,17.516,17.516,0,0,1-1.012,7.061A12.532,12.532,0,0,1,100,59.716a10.051,10.051,0,0,1-2.476,1.773,6.113,6.113,0,0,1-.934.4,46.6,46.6,0,0,1-1.049,5.246,11.425,11.425,0,0,1,1.605-1.915c.635-.7,1.359-1.453,2.156-2.287.173-.178.33-.388.493-.582,1.165-1.359,2.056-2.675,2.859-3.772l.3-.42c1.233-1.721,1.941-2.717,1.941-2.717a15.106,15.106,0,0,1-.724,3.32,13.37,13.37,0,0,1-1.311,3.053A11.726,11.726,0,0,1,99.317,65.8a13.466,13.466,0,0,1-2.843,1.227,5.807,5.807,0,0,1-.96.2,46.845,46.845,0,0,1-1.7,5.1,8.2,8.2,0,0,1,1.715-1.5c.383-.273.813-.556,1.269-.85L98.163,69c.184-.136.372-.3.556-.462,1.206-1.091,2.513-2.13,3.436-3.042l.351-.357C103.9,63.745,104.8,62.916,104.8,62.916Z" transform="translate(0)" fill="#fff"/>
      <path id="Path_40" data-name="Path 40" d="M182.85,78.6Z" transform="translate(-86.953 -33.346)" fill="#fff"/>
      <path id="Path_41" data-name="Path 41" d="M187.305,80.2c-.367.991-.834,1.967-1.2,2.927-.189.477-.367.96-.525,1.437s-.31.965-.525,1.453a5.773,5.773,0,0,0,.871-.593,11.306,11.306,0,0,0,2-2.261,12,12,0,0,0,1.983-5.02,21.854,21.854,0,0,0,.367-3.572,31.1,31.1,0,0,0-.441-4s-.341,1.191-.813,3.425c-.037.168-.074.346-.115.525-.3,1.348-.881,3.037-1.38,4.9C187.457,79.682,187.389,79.944,187.305,80.2Z" transform="translate(-88.004 -29.528)" fill="#fff"/>
      <path id="Path_42" data-name="Path 42" d="M184.76,74.591a4.913,4.913,0,0,0,.687-.755,12.291,12.291,0,0,0,1.537-2.665,10.173,10.173,0,0,0,.729-2.3,22.923,22.923,0,0,0,.3-3.027V64.063a11.662,11.662,0,0,0-.268-1.894,32.717,32.717,0,0,0-1-4.149v.2c0,.136-.037.362-.063.65-.052.608-.121,1.526-.178,2.728a5.423,5.423,0,0,1-.031.567c-.037.7-.073,1.485-.115,2.361l-.346,2.875c-.031.273-.068.556-.1.834-.068.525-.136,1.007-.21,1.521s-.226,1.049-.341,1.574C185.127,72.4,184.923,73.479,184.76,74.591Z" transform="translate(-87.861 -23.561)" fill="#fff"/>
      <path id="Path_43" data-name="Path 43" d="M183.9,59.279a9.753,9.753,0,0,1-1.542,3.9h0c.031-1.416.152-2.791.11-4.044s-.11-2.45-.163-3.525-.1-2.1-.157-2.932-.094-1.658-.131-2.35c-.163-2.791-.2-4.165-.2-4.165a28.1,28.1,0,0,1,2.1,7.674,21.939,21.939,0,0,1-.016,5.445Z" transform="translate(-86.463 -17.922)" fill="#fff"/>
      <path id="Path_44" data-name="Path 44" d="M171.689,47.937c.42,1.049.871,2.229,1.364,3.478s.923,2.623,1.432,4.1a9.837,9.837,0,0,0,.042-1.3,19.566,19.566,0,0,0-.425-3.672A25.179,25.179,0,0,0,167.55,38.5l1.909,4.16C170.084,44.05,170.839,45.807,171.689,47.937Z" transform="translate(-79.679 -14.281)" fill="#fff"/>
      <path id="Path_45" data-name="Path 45" d="M167.334,125.781a24.933,24.933,0,0,0,1.894,2.45,8.038,8.038,0,0,0,.75.761c.189-1.133-.346-2.922-1.185-5.041-.084-.194-.163-.409-.241-.624a32.005,32.005,0,0,0-1.574-3.6c-.063-.126-.126-.247-.184-.367a12.729,12.729,0,0,0-1-1.668l-.42-.582a14.2,14.2,0,0,0,.341,4.27A13.835,13.835,0,0,0,167.334,125.781Z" transform="translate(-78.628 -51.655)" fill="#fff"/>
      <path id="Path_46" data-name="Path 46" d="M172.217,114.455c-.1-.194-.178-.409-.268-.619a21.962,21.962,0,0,0-1.783-3.572q-.126-.178-.236-.362a18.462,18.462,0,0,0-1.574-2.172,8.545,8.545,0,0,0,.215,2.177c.2.787.278,1.574.525,2.387a16.446,16.446,0,0,0,.871,2.345,10.664,10.664,0,0,0,1.049,1.915,23.019,23.019,0,0,0,1.915,2.313,7.7,7.7,0,0,0,.755.719,6.862,6.862,0,0,0-.32-2.324c-.126-.425-.278-.871-.451-1.338S172.464,114.964,172.217,114.455Z" transform="translate(-80.061 -47.195)" fill="#fff"/>
      <path id="Path_47" data-name="Path 47" d="M176.2,109.783a8.985,8.985,0,0,0-.477-2.492,24,24,0,0,0-1.311-2.712c-.11-.194-.2-.414-.294-.619a18.081,18.081,0,0,0-2.1-3.551c-.089-.121-.173-.236-.252-.351-.525-.713-.928-1.227-1.222-1.574a3.672,3.672,0,0,0-.367-.378l-.136-.126a15.635,15.635,0,0,0,.446,2.392c.194.808.6,1.642.834,2.429a14.273,14.273,0,0,0,2.182,4.107,21.225,21.225,0,0,0,1.92,2.2,7.283,7.283,0,0,0,.776.677Z" transform="translate(-80.863 -42.56)" fill="#fff"/>
      <path id="Path_48" data-name="Path 48" d="M177.421,99.742c-.147-1.789-1.191-3.551-2.161-5.246-.115-.2-.22-.414-.325-.624a30.2,30.2,0,0,0-2.429-3.5l-.267-.341a11.978,11.978,0,0,0-1.464-1.505c-.351-.315-.525-.462-.525-.462a29.011,29.011,0,0,0,1.951,5.01,17.473,17.473,0,0,0,2.429,3.945c.9.97,1.537,1.663,2.03,2.1a6.618,6.618,0,0,0,.761.629Z" transform="translate(-80.963 -37.843)" fill="#fff"/>
      <path id="Path_49" data-name="Path 49" d="M176.837,88.1c-.2-.467-.42-.918-.645-1.359a22.445,22.445,0,0,0-1.484-2.513l-.43-.614a26.156,26.156,0,0,0-2.738-3.441l-.341-.325A17.642,17.642,0,0,0,169,78a18.883,18.883,0,0,0,1.306,2.7c.435.86.839,1.684,1.322,2.444a30.689,30.689,0,0,0,2.728,3.772,22.983,22.983,0,0,0,2.161,2.02,6.648,6.648,0,0,0,.8.608,6.529,6.529,0,0,0-.477-1.443Z" transform="translate(-80.368 -33.061)" fill="#fff"/>
      <path id="Path_50" data-name="Path 50" d="M173.6,75.186l-.907-1.144-.477-.608c-.577-.734-1.117-1.38-1.605-1.941a13.915,13.915,0,0,0-1.537-1.4l-.362-.315c-.771-.65-1.353-1.086-1.742-1.364l-.64-.42a28.722,28.722,0,0,0,1.731,2.859c.309.425.608.839.9,1.233s.525.8.782,1.17a22.039,22.039,0,0,0,1.616,2c.561.593.949,1.144,1.411,1.574a18.424,18.424,0,0,0,2.219,1.941,7.438,7.438,0,0,0,.887.572c-.483-1.049-.991-2-1.505-2.89C174.114,76.015,173.863,75.59,173.6,75.186Z" transform="translate(-79.099 -28.306)" fill="#fff"/>
      <path id="Path_51" data-name="Path 51" d="M132.394,170.2l.005-.535-.493.283L130.49,167.5l-.43.247,1.647,2.848Z" transform="translate(-61.855 -75.613)" fill="#fff"/>
      <path id="Path_52" data-name="Path 52" d="M125.182,170.559a.96.96,0,0,0-1.437.677,2.408,2.408,0,0,0,1.091,2.308.955.955,0,0,0,1.432-.682,1.993,1.993,0,0,0-.2-1.29A2.1,2.1,0,0,0,125.182,170.559Zm.357,2.623a.561.561,0,0,1-.588-.115,1.894,1.894,0,0,1-.556-.724,1.868,1.868,0,0,1-.2-.892.506.506,0,0,1,.871-.414,1.972,1.972,0,0,1,.561.745,1.846,1.846,0,0,1,.2.876A.556.556,0,0,1,125.539,173.181Z" transform="translate(-58.844 -77.003)" fill="#fff"/>
      <path id="Path_53" data-name="Path 53" d="M118.6,173.368a.955.955,0,0,0-1.5.525,2.4,2.4,0,0,0,.876,2.392.955.955,0,0,0,1.495-.525,1.978,1.978,0,0,0-.089-1.306A2.035,2.035,0,0,0,118.6,173.368Zm.121,2.623a.572.572,0,0,1-.577-.168,1.9,1.9,0,0,1-.488-.776,1.841,1.841,0,0,1-.126-.9.525.525,0,0,1,.907-.33,1.894,1.894,0,0,1,.493.787,1.789,1.789,0,0,1,.121.892.556.556,0,0,1-.31.519Z" transform="translate(-55.669 -78.312)" fill="#fff"/>
      <path id="Path_54" data-name="Path 54" d="M107.774,177.691a.782.782,0,0,0,.6.084.8.8,0,0,0,.483-.357.735.735,0,0,0,.1-.577.75.75,0,0,0-.362-.483.782.782,0,0,0-.593-.089.818.818,0,0,0-.493.357.74.74,0,0,0-.094.593A.719.719,0,0,0,107.774,177.691Zm.052-.881a.372.372,0,0,1,.257-.194.383.383,0,0,1,.32.047.414.414,0,0,1,.194.262.393.393,0,0,1-.052.315.4.4,0,0,1-.257.194.425.425,0,0,1-.32-.047.388.388,0,0,1-.189-.262.372.372,0,0,1,.047-.341Z" transform="translate(-51.078 -79.771)" fill="#fff"/>
      <path id="Path_55" data-name="Path 55" d="M111.31,175.419l-.262-.079-1.028,3.63.257.068Z" transform="translate(-52.327 -79.34)" fill="#fff"/>
      <path id="Path_56" data-name="Path 56" d="M112.472,180.011a.8.8,0,0,0,1.086-.273.708.708,0,0,0,.094-.577.787.787,0,0,0-.357-.483.8.8,0,0,0-1.086.268.761.761,0,0,0,.262,1.049Zm.047-.881a.414.414,0,0,1,.257-.194.425.425,0,0,1,.525.309.393.393,0,0,1-.047.315.42.42,0,0,1-.257.194.4.4,0,0,1-.32-.052.388.388,0,0,1-.194-.252.425.425,0,0,1,.037-.32Z" transform="translate(-53.315 -80.874)" fill="#fff"/>
      <path id="Path_57" data-name="Path 57" d="M96.883,179.431a.881.881,0,0,0-.241.74.923.923,0,0,0,.341.671.85.85,0,0,0,.393.184,2.619,2.619,0,0,0,.624,0l.561-.052-.283-3.273-.493.042.115,1.327H97.67a1.191,1.191,0,0,0-.787.362Zm1.049.1.089,1.049h-.163c-.467.042-.719-.11-.745-.446s.178-.525.635-.582Z" transform="translate(-45.962 -80.462)" fill="#fff"/>
      <path id="Path_58" data-name="Path 58" d="M91.143,181.407v-2.1a1.154,1.154,0,0,0-.32-.86,1.243,1.243,0,0,0-1.783,0,1.149,1.149,0,0,0-.33.85v2.1H89.2v-1.983a1.081,1.081,0,0,1,.147-.619.74.74,0,0,1,1.165.011,1.075,1.075,0,0,1,.131.619v1.983Z" transform="translate(-42.194 -80.639)" fill="#fff"/>
      <path id="Path_59" data-name="Path 59" d="M81.417,179.884a.9.9,0,0,0,.241.75,1.463,1.463,0,0,0,.913.341l.577.058.341-3.273L83,177.713l-.142,1.338h-.084l-.8-1.437-.6-.063.855,1.469A.918.918,0,0,0,81.417,179.884Zm1.238-.42h.157l-.11,1.049h-.173c-.456-.047-.666-.236-.629-.572s.288-.546.755-.5Z" transform="translate(-38.705 -80.391)" fill="#fff"/>
      <path id="Path_60" data-name="Path 60" d="M74.089,179.17l-.089.456,1.784.346.619-3.231-1.778-.341-.089.456,1.29.252-.2,1.075-1.259-.241-.089.456,1.259.247-.147.776Z" transform="translate(-35.201 -79.844)" fill="#fff"/>
      <path id="Path_61" data-name="Path 61" d="M61.8,176.432a1.689,1.689,0,0,0,1.317-.052,1.71,1.71,0,0,0,.8-2.34,1.741,1.741,0,0,0-2.25-.761,1.7,1.7,0,0,0-.813,2.266A1.673,1.673,0,0,0,61.8,176.432Zm-.556-2.02a1.227,1.227,0,0,1,.656-.708,1.2,1.2,0,0,1,.944-.037,1.175,1.175,0,0,1,.629.619,1.2,1.2,0,0,1,.037.97,1.219,1.219,0,1,1-2.287-.845Z" transform="translate(-28.872 -78.287)" fill="#fff"/>
      <path id="Path_62" data-name="Path 62" d="M54.442,171.072a.944.944,0,0,0-.446.456.886.886,0,0,0,0,.787,1.448,1.448,0,0,0,.74.629l.525.252,1.437-2.958-.451-.215-.614,1.233-.079-.037-.257-1.626-.525-.262.3,1.7A.907.907,0,0,0,54.442,171.072Zm.86.483.142.068-.441.939-.157-.073c-.409-.2-.525-.451-.4-.755S54.883,171.35,55.3,171.554Z" transform="translate(-25.647 -76.483)" fill="#fff"/>
      <path id="Path_63" data-name="Path 63" d="M47.737,168.821a1.165,1.165,0,0,1-.934-.152,1.186,1.186,0,0,1-.556-.976l-.477.1a2.224,2.224,0,0,0,.262.766,1.715,1.715,0,0,0,3.105-1.332,1.605,1.605,0,0,0-.745-1.049,1.469,1.469,0,0,0-1.259-.168,1.291,1.291,0,0,0-.525.268,2.23,2.23,0,0,0-.42.525l-.058.089,1.159.713.241-.393-.7-.43a.876.876,0,0,1,.587-.341,1.018,1.018,0,0,1,.692.136,1.248,1.248,0,0,1-.4,2.245Z" transform="translate(-21.78 -74.872)" fill="#fff"/>
      <path id="Path_64" data-name="Path 64" d="M43,161.7l-.782.409-1.112-.866.215-.839-.43-.336L40,163.8l3.425-1.773Zm-2.319,1.222.3-1.185.792.614Z" transform="translate(-19.036 -72.08)" fill="#fff"/>
      <path id="Path_65" data-name="Path 65" d="M35.74,156.386l-.357-.346-1.6,1.658.01-3.467-2.423,2.513.357.346,1.589-1.647-.016,3.473Z" transform="translate(-14.933 -69.304)" fill="#fff"/>
      <rect id="Rectangle_57" data-name="Rectangle 57" width="3.289" height="0.498" transform="translate(14.724 85.535) rotate(-41.16)" fill="#fff"/>
      <path id="Path_66" data-name="Path 66" d="M24.715,148.444a1.7,1.7,0,0,0,1.144-.336,1.61,1.61,0,0,0,.661-1.117,1.647,1.647,0,0,0-.32-1.259,1.831,1.831,0,0,0-.729-.572l-.483.357a2.618,2.618,0,0,1,.283.084,1.161,1.161,0,0,1,.215.1,1.049,1.049,0,0,1,.336.3,1.164,1.164,0,0,1,.226.9,1.269,1.269,0,0,1-1.406,1.049,1.128,1.128,0,0,1-.808-.467,1.359,1.359,0,0,1-.241-.928l-.472.357a1.71,1.71,0,0,0,1.574,1.526Z" transform="translate(-11.011 -64.991)" fill="#fff"/>
      <path id="Path_67" data-name="Path 67" d="M17.785,137.736a1.691,1.691,0,0,0,1.883-2.444,1.742,1.742,0,0,0-.629-.682l-.525.283a2.056,2.056,0,0,1,.262.121,1.2,1.2,0,0,1,.2.136.97.97,0,0,1,.283.351,1.164,1.164,0,0,1,.089.923,1.2,1.2,0,0,1-.614.719,1.243,1.243,0,0,1-.944.1,1.159,1.159,0,0,1-.724-.587,1.38,1.38,0,0,1-.094-.955l-.525.273a1.673,1.673,0,0,0,.184.871,1.652,1.652,0,0,0,1.154.886Z" transform="translate(-7.837 -59.975)" fill="#fff"/>
      <path id="Path_68" data-name="Path 68" d="M14.184,130.122a1.616,1.616,0,0,0,1.3.031,1.574,1.574,0,0,0,.981-.991,1.668,1.668,0,0,0,0-1.222,1.71,1.71,0,0,0-.913-.96,1.616,1.616,0,0,0-1.306-.031,1.721,1.721,0,0,0-.96,2.224A1.673,1.673,0,0,0,14.184,130.122Zm-.462-2.051a1.191,1.191,0,0,1,.687-.629,1.227,1.227,0,0,1,.955,0,1.191,1.191,0,0,1,.65.682,1.154,1.154,0,0,1,0,.913,1.191,1.191,0,0,1-.7.671,1.227,1.227,0,0,1-1.574-.682A1.154,1.154,0,0,1,13.723,128.071Z" transform="translate(-6.277 -56.275)" fill="#fff"/>
      <path id="Path_69" data-name="Path 69" d="M11.1,121.415a1.7,1.7,0,0,0,1.191.1,1.611,1.611,0,0,0,1.023-.8,1.673,1.673,0,0,0,.157-1.29,1.8,1.8,0,0,0-.472-.8l-.577.157.231.178a1.717,1.717,0,0,1,.168.173,1.1,1.1,0,0,1,.2.409,1.17,1.17,0,0,1-.115.918,1.2,1.2,0,0,1-.755.567,1.217,1.217,0,0,1-.949-.1,1.128,1.128,0,0,1-.577-.729,1.353,1.353,0,0,1,.11-.955l-.567.157a1.715,1.715,0,0,0,.934,2.009Z" transform="translate(-4.822 -52.378)" fill="#fff"/>
      <path id="Path_70" data-name="Path 70" d="M9.188,113a1.715,1.715,0,0,0,2.429-.414,1.673,1.673,0,0,0,.257-1.2,1.7,1.7,0,0,0-.687-1.133,1.616,1.616,0,0,0-1.269-.309A1.721,1.721,0,0,0,8.5,111.9,1.663,1.663,0,0,0,9.188,113Zm0-2.1a1.233,1.233,0,0,1,.818-.488,1.2,1.2,0,0,1,.923.215,1.149,1.149,0,0,1,.493.8,1.175,1.175,0,0,1-.21.886,1.207,1.207,0,0,1-.829.525,1.191,1.191,0,0,1-.923-.215,1.233,1.233,0,0,1-.273-1.71Z" transform="translate(-4.051 -48.233)" fill="#fff"/>
      <path id="Path_71" data-name="Path 71" d="M10.855,103.761l-.021-.493-2.3.094,2.4-2.5-3.483.147.021.493,2.282-.094-2.408,2.5Z" transform="translate(-3.508 -43.929)" fill="#fff"/>
      <path id="Path_72" data-name="Path 72" d="M9.624,94.507l-1.978-.131-.037.493,2.1.142a1.17,1.17,0,0,0,.876-.262,1.2,1.2,0,0,0,.435-.866,1.17,1.17,0,0,0-.315-.918,1.2,1.2,0,0,0-.792-.383l-2.1-.142-.037.493,1.978.136a1.086,1.086,0,0,1,.608.178.74.74,0,0,1-.079,1.165,1.049,1.049,0,0,1-.661.094Z" transform="translate(-3.637 -39.926)" fill="#fff"/>
      <path id="Path_73" data-name="Path 73" d="M8.625,85.42,8.31,87.4l.462.073.121-.745,2.785.441.079-.488-2.785-.446.115-.74Z" transform="translate(-3.97 -36.588)" fill="#fff"/>
      <path id="Path_74" data-name="Path 74" d="M11.464,74.7a.824.824,0,0,0-.32.294,2.366,2.366,0,0,0-.236.577l-.168.525,3.147.97.147-.477L12.76,76.2l.068-.215a1.233,1.233,0,0,0,0-.86.923.923,0,0,0-.6-.525.95.95,0,0,0-.766.1Zm.6.393c.336.1.435.372.3.808l-.052.173-.991-.3.047-.157c.142-.446.372-.624.7-.519Z" transform="translate(-5.125 -31.424)" fill="#fff"/>
      <path id="Path_75" data-name="Path 75" d="M14.942,68.726a.923.923,0,0,0-.483-.4.913.913,0,0,0-.792.031,1.464,1.464,0,0,0-.572.813l-.215.525L15.938,70.9l.184-.462-1.254-.525.037-.084,1.574-.378.226-.567-1.679.435A.918.918,0,0,0,14.942,68.726Zm-.425.9-.058.147-.976-.388.068-.163c.168-.425.409-.577.724-.451S14.7,69.192,14.517,69.628Z" transform="translate(-6.142 -28.423)" fill="#fff"/>
      <path id="Path_76" data-name="Path 76" d="M19.962,60.909a1.626,1.626,0,0,0-.834-1.007,1.721,1.721,0,0,0-2.434,2.056,1.574,1.574,0,0,0,.824,1,1.626,1.626,0,0,0,1.39.094,1.673,1.673,0,0,0,.918-.813,1.7,1.7,0,0,0,.136-1.332Zm-.525,1.1a1.249,1.249,0,1,1-.53-1.663,1.259,1.259,0,0,1,.619.724,1.18,1.18,0,0,1-.089.939Z" transform="translate(-7.915 -24.363)" fill="#fff"/>
      <path id="Path_77" data-name="Path 77" d="M23.641,55.386a2.512,2.512,0,0,0,.351-.692,1.532,1.532,0,0,0,.042-.645,1.7,1.7,0,0,0-2.025-1.38,1.437,1.437,0,0,0-.582.283,2.707,2.707,0,0,0-.525.6l-.383.572,2.743,1.846Zm-2.45-1.416.126-.184a1.374,1.374,0,0,1,.782-.635,1.154,1.154,0,0,1,.928.194,1.128,1.128,0,0,1,.5,1.254,2.24,2.24,0,0,1-.252.525l-.126.184Z" transform="translate(-9.775 -20.996)" fill="#fff"/>
      <path id="Path_78" data-name="Path 78" d="M27.882,47.958a1.049,1.049,0,0,1-.551-.289L25.8,46.4l-.315.383,1.626,1.353a1.216,1.216,0,0,0,1.993-1.086,1.18,1.18,0,0,0-.451-.8L27.027,44.91l-.315.378,1.526,1.269a1.117,1.117,0,0,1,.388.5.74.74,0,0,1-.745.9Z" transform="translate(-12.138 -17.328)" fill="#fff"/>
      <path id="Path_79" data-name="Path 79" d="M33.945,39.35l-.414-.42a1.684,1.684,0,0,0-.782.43,1.647,1.647,0,0,0-.525,1.359,1.694,1.694,0,0,0,.488,1.091,1.672,1.672,0,0,0,2.4.037,1.815,1.815,0,0,0,.467-.8l-.414-.425a1.229,1.229,0,0,1-.047.289,1.149,1.149,0,0,1-.068.226,1.086,1.086,0,0,1-.257.372,1.123,1.123,0,0,1-.86.346,1.2,1.2,0,0,1-.866-.378A1.217,1.217,0,0,1,32.7,40.6a1.138,1.138,0,0,1,.351-.86A1.39,1.39,0,0,1,33.945,39.35Z" transform="translate(-15.336 -14.485)" fill="#fff"/>
      <path id="Path_80" data-name="Path 80" d="M39.768,37.321l-1.794-2.182.582-.477-.3-.362L36.71,35.575l.294.362.588-.483,1.789,2.182Z" transform="translate(-17.472 -12.284)" fill="#fff"/>
      <path id="Path_81" data-name="Path 81" d="M47.645,27.98l-1.4.866,1.731,2.8.42-.257-.818-1.332.939-.582-.247-.4-.939.582-.414-.671.97-.6Z" transform="translate(-22.008 -9.279)" fill="#fff"/>
      <path id="Path_82" data-name="Path 82" d="M54.008,25.868a.9.9,0,0,0-.608-.5,1.453,1.453,0,0,0-.955.21l-.525.262,1.495,2.932.435-.226-.608-1.2.079-.042,1.448.776.525-.278-1.542-.787a.887.887,0,0,0,.325-.525A.939.939,0,0,0,54.008,25.868ZM53.2,26.917l-.142.073-.477-.934.157-.079c.409-.21.692-.163.845.136s.031.561-.383.776Z" transform="translate(-24.704 -8.032)" fill="#fff"/>
      <path id="Path_83" data-name="Path 83" d="M60.342,24.96a1.7,1.7,0,0,0,1.227,0,1.679,1.679,0,0,0,.965-.907,1.621,1.621,0,0,0,.042-1.306,1.721,1.721,0,0,0-3.147-.073,1.689,1.689,0,0,0,.934,2.287Zm-.493-2.1a1.253,1.253,0,0,1,1.61-.65,1.254,1.254,0,0,1,.65.7,1.206,1.206,0,0,1-1.6,1.574,1.264,1.264,0,0,1-.645-1.642Z" transform="translate(-28.2 -6.285)" fill="#fff"/>
      <path id="Path_84" data-name="Path 84" d="M70.721,20.6,69,18.4l.189,3.6.5-.126-.142-2.014,1.443,1.846.42-2.313.792,1.852.493-.126L71.229,17.84Z" transform="translate(-32.824 -4.458)" fill="#fff"/>
      <path id="Path_85" data-name="Path 85" d="M84.414,16.47l-2,.173.042.467.755-.068.247,2.812.493-.042L83.7,17l.75-.068Z" transform="translate(-39.2 -3.807)" fill="#fff"/>
      <path id="Path_86" data-name="Path 86" d="M91.893,16.315h-.5L91.39,17.6H89.974V16.31H89.48L89.47,19.6h.5l.005-1.532H91.39V19.6h.493Z" transform="translate(-42.556 -3.731)" fill="#fff"/>
      <path id="Path_87" data-name="Path 87" d="M99.117,19.154l.257.829.525.058L98.708,16.4,96.72,19.7l.525.058.451-.755Zm-.525-1.647.367,1.165-.991-.11Z" transform="translate(-46.003 -3.773)" fill="#fff"/>
      <path id="Path_88" data-name="Path 88" d="M110.553,18.66l-.813,3.184,1.416.362.115-.451-.939-.236.7-2.738Z" transform="translate(-52.194 -4.848)" fill="#fff"/>
      <path id="Path_89" data-name="Path 89" d="M115.876,23.108l1.327.472.063.866.525.184-.315-3.819-2.7,2.754.525.178Zm1.206-1.254.089,1.217-.944-.33Z" transform="translate(-54.59 -5.87)" fill="#fff"/>
      <rect id="Rectangle_58" data-name="Rectangle 58" width="3.289" height="0.498" transform="translate(55.281 16.523) rotate(-79.37)" fill="#fff"/>
      <path id="Path_90" data-name="Path 90" d="M125.488,27.7,127,24.558l-.451-.215-.991,2.056-1.07-3.3-1.521,3.163.446.22,1-2.077Z" transform="translate(-58.484 -6.959)" fill="#fff"/>
      <path id="Path_91" data-name="Path 91" d="M133.907,30.593a1.574,1.574,0,0,0,.215-1.306,1.463,1.463,0,0,0-.3-.572,2.376,2.376,0,0,0-.614-.5l-.582-.367-1.742,2.8.577.357a2.623,2.623,0,0,0,.7.336,1.679,1.679,0,0,0,.65,0A1.574,1.574,0,0,0,133.907,30.593Zm-1.663.268a1.91,1.91,0,0,1-.525-.231l-.189-.121,1.248-2,.189.115a1.4,1.4,0,0,1,.656.766,1.149,1.149,0,0,1-.157.934,1.112,1.112,0,0,1-.771.525A1.075,1.075,0,0,1,132.244,30.861Z" transform="translate(-62.244 -9.217)" fill="#fff"/>
    </g>
  </g>
</svg>
