<svg xmlns="http://www.w3.org/2000/svg" width="32" height="32" viewBox="0 0 32 32">
  <g id="twitter_logo_white" transform="translate(-0.13 2.804)">
    <g id="Group_76" data-name="Group 76">
      <rect id="Rectangle_211" data-name="Rectangle 211" width="32" height="32" transform="translate(0.13 -2.804)" fill="none"/>
      <path id="white_background" d="M28.854,6.668c.019.282.019.564.019.849,0,8.675-6.6,18.68-18.68,18.68v-.005A18.586,18.586,0,0,1,.13,23.248a13.355,13.355,0,0,0,1.563.095,13.183,13.183,0,0,0,8.154-2.816,6.573,6.573,0,0,1-6.133-4.559,6.544,6.544,0,0,0,2.964-.113A6.566,6.566,0,0,1,1.411,9.42V9.337a6.524,6.524,0,0,0,2.98.822A6.573,6.573,0,0,1,2.358,1.392,18.634,18.634,0,0,0,15.889,8.251,6.571,6.571,0,0,1,27.077,2.263,13.174,13.174,0,0,0,31.246.67,6.59,6.59,0,0,1,28.36,4.3a13.057,13.057,0,0,0,3.77-1.034A13.338,13.338,0,0,1,28.854,6.668Z" fill="#fff"/>
    </g>
  </g>
</svg>
